<?xml version="1.0" encoding="utf-8"?>
<!-- Generator: Adobe Illustrator 19.1.0, SVG Export Plug-In . SVG Version: 6.00 Build 0)  -->
<svg version="1.1" id="レイヤー_1" xmlns="http://www.w3.org/2000/svg" xmlns:xlink="http://www.w3.org/1999/xlink" x="0px"
	 y="0px" viewBox="0 0 545 859" enable-background="new 0 0 545 859" xml:space="preserve">
<path stroke="#000000" d="M541,519.9l-0.6-8.3l-0.2-7.4l-0.5-8.1l-0.5-5.7l-0.5-7.4l-0.5-5.4l-1.5-3.1l-1.7-2.7l-2.4-2.8l-0.5,0.4
	l-2.5,2.1l-3.7,2.4l-0.3-1.6l-0.5-5.1l-0.6-4.6l-0.8-6.1l-0.7-4.8l-1.2-8.3l-1-5.2l-0.8-4.1l-1.5-4.3l-0.8-2.8l0-2.5l-0.4-2.7
	l-1-2.1l-1.8-1.7l-2.7-2.4l-3.3-1.8l-4.8-2l-4.7-1.5l-5.4-1l-5.7-1l-6.7-0.8l-6.3-0.7l-14.5-0.5l-13.4-0.5l-8.1-0.3l-12.1,0.1
	l0.2-5.6l0.6-15.6l0.5-15.7l0.2-10.5l0.5-13.4l0.3-13.5l-14.6,0.1l-9.3-0.3l-27.6-1.2l-18.9-1l-6.6-0.6l-7-0.7l-10.3-1.2l-5.7-0.7
	l-5.6-0.8l-6.7-1.2l-7.7-1.8l-2.2,0.3l-4.1,1l-4.5,1.3l-5,1.9l-4.4,1.5l-4.7,1.7l-4.6,1.9l0.1,3l0.7,10.8l0.7,8.4l0.6,8l0.9,9
	l0.9,10.8l0.8,8.6l0.3,7.6l-3.6-0.2l-0.5-4l-1.7-16.4l-2.5-21.3l-3.1-24l-1.1-10.2l-0.9-7l-1.3-10.1l-1.5-12.3l-0.6-6.3l-1-7.5
	L266,271l-1.1-8l-0.8-6.3l-0.9-7.8l-1-7.3l-1.4-9l-0.8-6.2l-0.6-6.2l-0.9-7.4l-0.5-3.3l-0.5-4.2l-0.5-4.8l0.3-0.5l1.4-1.8l1.8-2.1
	l1.3-1.8l1.6-1.8l1-1.3l0.8-1.4l0.1-1.8l0.7-0.3l2.9-1.4l2.7-1.8l2.3-1.5l3-2.5l3.3-3.2l3.2-3.7l3.3-4.8l2.4-4.6l2.2-5.6l0.9-3.9
	l0.9-4.7l0.4-3.8v-2.6l-0.6-4.5l-0.6-3.9l-0.7-3.3l-1.4-4l-1.3-3.2l-1.5-2.8l-2.1-3.6l-2-2.9l-3.5-3.6l-2.3-2.3l-3-2.5l-3.6-2.3
	l-2.8-1.8l-3.6-1.7l-3-1.2l-3.5-0.9l-4.2-1l-5.1-0.5h-4.5l-8.6-95.1l2.4,95.4l-1.8,0.5l-2.5,0.8l-4.3,1.5l-4.8,2l-5.7,3.5
	c0,0-5,4.2-5.5,4.5c-0.5,0.3-3.8,4.3-3.8,4.3l-3.4,4.8l-2.7,4.7l-2,4.8l-1.4,5l-1,5l-0.3,4.8l0.1,4.2l0.6,5l1.2,4.6l1.4,4.4l2.8,5.9
	l3,4.4l3.1,3.7l5.3,5.1l4,3l4.8,2.9l6.4,2.4l5.5,1.8l0.2,1.9l0.5,1.3l1.3,1.7l1.8,1.8l1.6,1l1.5,0.5l-0.4,8.8l-1,22.4l-0.5,13.9
	l-0.8,20.5l-0.7,18.2l-0.5,18.5l-0.5,19.4l-0.6,18l-14.4-4.6l-17.8,1.8l-19.1,3l-20.5,4.1l-32.5,9.4l-25.8,8.9l-22.8,8.7l-0.1,0.3
	l1.3,7.1l3.3,16.6l3,15.9l3.4,16.7l3.2,16.7l3.1,16l3.1,16l3.8,18.8l3.3,16.5l3.5,17.7l-1.8,1.1l-2.7,1.7l-7.6,3.8l-9.8,4.7l-11.6,6
	L72,552.2l-11,6.2l-6.9,4l-10.9,6.8l-6.4,4.2l-7,4.8l-5.5,4.4l-5.8,4.9l-6.2,6l-3.2,3.8l-3.2,4.6l-1.8,3.7l-1.1,3l0.1,3.8l0.8,5.6
	l2,13l2.6,17l2.6,16.5l2.5,16.5l0.9-7.1l0.8-6.9l1.2-8.5l1.3-6.6l1-4.4l1.1-5.6l1.5-3.8l1-1.2l0.7-0.1l0.7,0.6l0.7,1.7l0.7,2.8
	l0.7,5.2l0.6,9.5l0.5,12.1l0.3,12.8l-0.1,10.5c0,0,0.2,0.2,0.4,0.2s7.8,2.8,7.8,2.8l0.4-1.4l1.4-3.5l2.1-5l1.9-3.9l1.8-4l2.3-3.9
	l2.1-3.1l2.4-2.9l2.7-2.5l2.7-2.2l3.2-1.4l2.9-0.3l3.2,1.2l2.6,1.9l2.6,2.7l2.6,3.8l2.5,5.1l2.5,5.6l2.2,6.5l2.3,7.4l26.9-5.5
	l0.2-0.5l2.9-7.9l1.6-4l2.3-5l3.1-5.8l2.8-5l2.1-3.2l2.5-3.3l2.3-2.5l2.4-2l2.8-1.6l2.9-0.5l2.3,0.4l2.5,1.4l2.2,2.2l2.2,3.4
	l2.1,4.3l1.9,6.2l2.2,7.4l1.8,8.3l22.3-5.9l0.4-1.8l1.1-4.1l1-4.1l1.8-5.4l1.5-4.7l2.1-5.4l2.1-5.2l2.2-4.4l2.6-4.3l2.7-3.5l3-2.7
	l2.9-1.5l2.8-0.4l2.8,1l2.9,2.3l2.7,3.2c0,0,2.8,4.5,2.6,4.5s2.8,6.4,2.8,6.4l2.2,6.5c0,0,2.7,8.5,2.7,8.6c0,0.2,30.1-9.2,30.1-9.2
	l0.5-2.4l1.8-4.5l2.2-5.5l2.1-5.4l1.8-3.9l1.9-4l1.7-3.6l1.9-3.4l2-3.5l2-3.1l2.4-3.2l2.4-2.5l2.8-2.4l2.3-1.3l3,0l1.8,0.7l2.2,1.7
	l2.4,3.1l2.1,4.2l1.8,5.3l1.5,5.7l1.5,7.7l0.9,7.3l28.8-11l0.1-1.3l0.8-3.5l0.9-4.2l1.8-7.1l2-6.5l1.4-4.3l1.8-4.9l2.4-6l1.5-3.4
	l1.9-3.4l2-2.6l1.9-1.7l2.2-1.1l2.3,0.1l1.8,1c0,0,2.2,2.2,2.1,2.3c0,0.1,1.5,2.8,1.5,2.8l1.7,3.6l1.7,4.4l1.4,4.2l1.3,5l1.1,5
	l1.3,7l22.6-6.7l0.6-4.4l1-4.6l1.2-5l2-7.1l1.3-3.6l1.4-3.8l1.7-4.1l1.9-3.2l1.6-2.5l1.7-2.4l3.3-2.7l2.7-0.7l2.4,0.1l2.2,1.2
	l1.8,1.3l1.6,1.7l2.2,2.9l2.7,4.5l1.8,3.4l2.4,5.2l1.7,4.5l2.1,6.3l24.8-11v-1.3l0.9-3.5l1.1-3.3l1.1-3.8l1.3-4.3l0.9-3.1l1.2-3.2
	l1.1-3.2l1-2.5l1.4-3.1l1.2-2.8l1.3-2.1l1.8-2.6l1.7-1.8l1.6-1l1.9-0.2l1.5,0.5l1.6,1.7l1.6,2.9l1.7,3.9l1.5,4.5l1.2,5l1,5l0.5,4.2
	l0.5-0.2l7.3-4.6l3.2-1.9l3.5-2.1l3.4-2.2l4.3-2.7l4.7-3l0.2-2l0.8-2.9l1.2-4.4l1.4-4.5l1-2.8l1.1-2.8l1.3-3.1l1.9-4.4l1.9-3.2
	l1.5-2.3l1.9-2.1l1.8-1.2l1.6-0.4l1.5,0.2l1.6,1l1.2,1.4l1.7,2.5l2.1,4.8l2.5,7.1l2.3,5.2l1,0.7l0.8-0.6l0.5-1.1l0.5-2.6l0.2-5.3
	L541,519.9z M396,351.5l0,15l-10.1-0.2l-0.1-14.8L396,351.5z M384.6,375l10.4,0.1l0.1,14.7h-10.5L384.6,375z M379.1,353.5v14.8
	l-10.4,0.1l0-15L379.1,353.5z M365.7,377.9l10.2,0.1l0,14.7l-10.3,0.1L365.7,377.9z M372,400v14.8l-10.5,0l-0.2-14.8L372,400z
	 M381,459.9l-10,0l0-14.9L381,445L381,459.9z M381,464.8v12.8l-10.1,2.2l0.1-15L381,464.8z M355.1,454.1l0.1-14.2h10.5v14.3
	L355.1,454.1z M363.7,463.9c0,0,0,14.5,0,14.3s-10,0.1-10,0.1l0-14.5L363.7,463.9z M354.6,434.1V419l10,0.2l0.1,14.9L354.6,434.1z
	 M349.4,353.4h10.5l0,14.9l-10.5,0V353.4z M346.8,374.5l10.2,0l0,14.8l-10.3,0.1L346.8,374.5z M345,394.2l10.1,0.2l0,14.8l-10-0.1
	V394.2z M335.5,464.8H346l-0.1,14.8l-10.5,0L335.5,464.8z M329.2,412.5l-0.1-15l10.7,0.1l-0.1,14.8L329.2,412.5z M346,457.5
	l-10.4,0.1l-0.1-14.9l10.6,0L346,457.5z M335.5,433.6l0-15l10.5,0.1l0.1,14.8L335.5,433.6z M330.2,351l10,0l0.1,14.9l-10.1,0
	L330.2,351z M328.2,375.5l10.1,0l0.1,14.8h-10.2V375.5z M328.2,462.9l0,14.8l-10.4,0l-0.1-15L328.2,462.9z M315.8,455.6v-14.9l10,0
	l0,15H315.8z M327.3,419.2V434h-10.1v-14.8H327.3z M323,411l-10.6,0l0-14.5l10.6,0.1V411z M322.1,348.9l0.1,14.8l-10.2,0.1l0-15
	L322.1,348.9z M310.5,375l10.2-0.1v14.5l-10.2,0L310.5,375z M309.9,464.3l0,14.6l-10.4,0.1v-14.7L309.9,464.3z M298.5,456.6l0-14.4
	l10,0.1l0.1,14.3H298.5z M308.5,419.3l0,14.8l-10.5,0l0-14.8H308.5z M306.2,411.5l-10.2,0l0-14.9l10.2,0L306.2,411.5z M293.2,387.5
	l0-14.8l10.2,0.1v14.8L293.2,387.5z M303.4,347.2v14.9l-10.2,0.1l0-15H303.4z M267,562.7c0,0-1.4-19.6-1.4-19.9s-1.5-19.9-1.5-19.9
	l-1.6-26.8v-15.1l0.1-5.4l6.5-0.8l6.7-2.4l6.4-2.6l4.1-1.7l4.2,41.1l17.9,1.6l8,46l-89.8,20.8L267,562.7z M242.1,492.4l2.6,0.6
	l1.1,0.9l0.5,0.8v23l-6.5,2.2l-5.3,1.2l-4.1,0.9h-2.7l-2.3-0.4l-1.2-1.2l-0.3-0.6V495l5.6-1.4l5.9-1l4-0.3L242.1,492.4z
	 M238.1,449.3l1.7,0.4l0.9,1l0.1,27.2l-4.6,0.9l-5.2,1.7l-4.1,1.6l-2.8,2.1l-1.8,1.4l-0.9,0.6l-1.3-0.7l-2.2-6.4l-1.5-7.9l-0.7-5.9
	l-0.6-4.9l-0.1-1.8l7-3.6l6.8-3l4.4-1.7l3-0.8L238.1,449.3z M234.3,414.4l0.8,0.9l-0.1,23.1l-5.6,1.9l-5.9,2.1l-4.1,0.7l-3.8,0.1
	l-1.8-1.1l-1.2-1l-0.2-24.9l6.5-1.7l5.6-0.9l3.5-0.5l2.7,0.1l2.2,0.4L234.3,414.4z M216.7,370.4l5.9-1l4.3-0.2l2.7,0.3l1.6,0.6
	l1.1,0.8l0.2,0.8v22.9l-4.3,1.7l-5,1.6l-4.2,0.9l-3.3,0.3l-2.8-0.1l-1.7-0.9l-1.1-1.1l-0.1-24.9L216.7,370.4z M207.1,500.5l1.9,0.9
	l0.5,1.2v22.5l-4.8,1.8l-5.5,1.6l-3.9,1.1l-3.8,0.2l-2.6-0.5l-1.6-1.4l-0.5-1l-0.1-23.9l5-1.4l5.9-1.1l4.1-0.5h2.9L207.1,500.5z
	 M200.8,464.7l0.9,0.9l0.4,1v24.1l-4.9,1.1l-5,0.9l-4.9,0.8l-4.3-0.4l-1.9-0.8l-1.5-0.9l-0.1-23.2l4.2-1.8l4.8-1.4l4.1-1.2l3.4-0.5
	l2.9,0.1L200.8,464.7z M197.3,425.7l0.9,0.9l0.1,23.1l-6.1,2l-6.4,1.9l-3.6,0.8l-3.4-0.1l-1.7-0.9l-1.4-1.3l-0.1-0.4l-0.1-24.4
	l6.4-1.6l5.1-0.9l3.9-0.5l2.8,0.1l2.1,0.5L197.3,425.7z M178.9,383l8.6-3.2l2.7-1l1.7-0.4l1.3-0.1l1.8,0.9l0.2,27.9l-3.6,0.7
	l-3.2,0.8l-3.8,1.3l-3.4,1.7l-2.1,1.4l-1.6,1.4l-0.6,0.7l-1.1,0.2l-0.5-0.6l-1.2-1.9l-1.6-5.8l-1.1-5.6l-0.9-5.8l-0.5-4.3l-0.2-3.7
	L178.9,383z M172.8,532.5l-5.5,0.7l-5.2,1.8l-4.1,2.3l-2.9,2.1l-0.8,0.8l-0.8,0.2l-1-1.1l-2.2-5.8l-1.2-6.6l-1-7.4l-0.6-6.8l6.4-3.4
	l7.1-3.1l5.7-2.1l3.6-0.9l1.9,0.3l0.6,1.3L172.8,532.5z M164.2,467.5l1.8,0.4l0.9,0.8l0.1,27.6l-4.9,0.8l-5,1.6l-4,1.8l-3.4,2.2
	l-1.3,1.2l-1.3,0.2l-1.4-2.7l-2-7.9l-1.3-7.7l-0.8-5.8l-0.2-3.4l6.8-3.6l6.4-2.8l5.1-1.8l2.6-0.6L164.2,467.5z M157.6,433.1l1.2,0.2
	l0.9,0.8l0.6,0.8l0.1,27l-6,1.4l-5.3,1.7l-3.2,1.8l-2.8,1.8l-0.9,1.2l-0.9,0.4l-1.2-0.5l-2.2-4.9l-1.1-5.4l-1.3-7.4l-0.5-5.9
	l-0.3-3.5l8.2-4.1l6.3-2.7l4.1-1.4l2.6-0.8L157.6,433.1z M138.2,398.3l6.2-0.8l3.1-0.3l3.5,0.3l1.4,0.8l1.1,0.8l0.1,23.3l-4.8,1.6
	l-5.7,1.8l-3.4,0.9l-4.3,0.3l-2.1-0.5l-1.8-1l-0.2-0.6l-0.2-0.3l-0.1-24.5L138.2,398.3z M347.5,560.2l-19.5,6.1l-20.8,5.9l-19.4,5.8
	l-17.5,4.7l-31.1,8.2l-26.4,6.8l-26.8,6.2l-22.8,4.8l-24.2,4.6l-22.7,3.6l-21.4,2.4l-18.1,1.2l-17.6-0.1l-12.6-1.2l-8.4-1.8
	l-5.8-2.2l-4.7-2.7l-2.2-2l-2-3L23,604l0.4-4l2-4.5l3.2-4.6l5.1-5.6l5.6-4.9l2.3-2.2l7.4-5.8l7.6-5.3l9.4-6.1l6.9-4.4l8.9-5.2
	l11-5.8l8.4-4.6l7.2-3.6l3.9-2h0.2l1.8,0.1l1.6,0.9l0.6,2.2l-0.4,2.4l-0.9,1.5l-11.3,5.2l-8.9,4.4l-9.2,4.8l-5.6,3.2l-7,4.4
	l-8.4,5.2l-5.7,4.7l-4.4,3.5l-3.8,3.9l-4,4.9l-2.1,4.5l-0.5,2.5l0.2,3l1.2,1.4l2.7,1.5l5.1,1.2l8.1,0.6l11.9,0.2l12.6-0.7l18.1-1.6
	l20.4-2.6l14.1-1.8l22.4-3.2l14.3-2.3l29.2-4.8l16.9-2.9l28.8-5.4l20.6-3.6l20.6-4l20.9-4.3l29.6-6.1l30.1-5.9L347.5,560.2z
	 M325.4,536.5c0-3.4,2.8-6.2,6.2-6.2c3.4,0,6.2,2.8,6.2,6.2c0,3.4-2.8,6.2-6.2,6.2C328.1,542.7,325.4,540,325.4,536.5z M374.5,543.7
	c-3.4,0-6.2-2.8-6.2-6.2c0-3.4,2.8-6.2,6.2-6.2c3.4,0,6.2,2.8,6.2,6.2C380.7,540.9,378,543.7,374.5,543.7z M382.7,498.5l-1.4,1.6
	l-0.4,3.1l-0.1,4.2l0.6,6.6l0.4,2.6l-0.4,1.8l-1.4,2l-2.2,1.6l-2.7,1.2l-3.8,1.3l-4.1,0.5l-9.8,0.2l-9-0.5l-8.2-0.5l-6.1-0.4
	l-8.9,0.1l-1.3-0.5l-1.6-2.1l-0.7-2.8l-0.4-4.4v-6.4l0.4-4.3l1-2.8l0.7-1.1l0.9-0.8l9.4,0.1l9.8-0.8l10.5-1.2l8.8-0.9l6.6-0.4
	l4.9-0.1l4.1,0.2l3,1l1.4,0.9L382.7,498.5z M374.3,434.6v-14.5l10.5,0l0,14.5H374.3z M380,411.5l0.1-14.9l10.1,0v14.9L380,411.5z
	 M387.3,455.6l0-14.8l10.5,0l0,14.8L387.3,455.6z M389.1,475.7l-0.8-11.9l9.5-0.1l0,9.8L389.1,475.7z M391.1,432.2l0-14.9l10.4,0.1
	l0,14.6L391.1,432.2z M451.5,430.2l1-2.9l0.7-0.8c0,0,2.2-0.4,2.3-0.4c0.1,0,2.6,0.1,2.6,0.1l2.2,0.4l1.2,0.7v12.4l-4.1-0.2l-2.7-1
	l-1.8-1l-1.3-1.5l-0.4-2.2L451.5,430.2z M436.9,427.4l0.6-3.6l3.7-0.4l3.1-0.1l1.9,0.8l1,0.9c0,0-0.1,11.8-0.1,11.6
	s-4.5,0.4-4.5,0.4l-3.4-0.2l-1.2-0.6l-1-0.9l-0.2-0.9l-0.3-3.1L436.9,427.4z M427.3,449.7l3.8-0.4l5.1,0l3.7,0.1l5.1,0.6l6.8,1.3
	l4.5,1.3l4.1,1.4l2.4,1l1.2,0.8l-9.9,3.6l-9.8,3.1l-7.3,2l-8.5,2l-3.2,0.8l0.5-17.2L427.3,449.7z M421.9,344.4l3.8-1.9l0.1,12.5
	l-3.9,2L421.9,344.4z M424.4,367.4l-0.1,12.2l-3.3,2.5l-0.1-12.2L424.4,367.4z M420.3,391.6l3.9-2l0,15.6c0,0-3.7,2-3.8,1.9
	c-0.1-0.1-0.1-15.3-0.1-15.3V391.6z M424.3,411.7c0,0-0.1,14.8-0.1,14.6c0-0.2-4.2,2.2-4.2,2.2l-0.1-14.7L424.3,411.7z M422.2,433.1
	l0.1,16.7l-3.3,1.9l-0.2-16.4L422.2,433.1z M421.3,458.9l-0.1,8.6l-2.2,0.9l-0.5,0.2l-0.9-8.8L421.3,458.9z M417.9,381.5l-3,1.8
	l-0.2,0.2l0.2-10.8l3-2.2L417.9,381.5z M418,405.9l-3.3,2.2l0.1-12.8l3.1-2.1L418,405.9z M413.8,347.8l3.7-2.2l0.1,11.4l-3.7,1.8
	l-0.2,0.1L413.8,347.8z M413.7,418.4l4.6-2.2l-0.1,13.6l-4.6,2.5V418.4z M415.6,440l0,12.8c0,0-3.1,1.8-3.1,1.7c0-0.1,0-12.2,0-12.2
	L415.6,440z M411.5,470.4l-0.2-8l4.2-1.1l0.1,7.8L411.5,470.4z M430.3,506.4l-1.7,1.5l-3.1,1.4l-2.1,1.1l-1,0l-1-1.8l-1.9-4.2
	l-1.7-4.1l-0.5-1.6l0.1-0.8l0.2-0.6l3.2-1.6l3.2-1l2.2-0.6l1.1-0.2l0.7,0.7l1.3,4.3l0.9,4.4l0.2,1.6L430.3,506.4z M454,526.1
	l-1.8,1.2l-2.6,1.1l-2.5,0.8l-1.9,0.5l-1.4,0.2l-1.1-0.7l-2.8-9.8l-2-8.2l-1.2-5.2l-0.8-4.6l-0.3-2.5l0.2-1.9l1.1-1l2.1-1l2.8-0.9
	l2.8-0.9l2.2-0.4l1.2-0.3l0.7,0.3l1,4.7l0.9,5.9l1.1,5.6l0.9,4.7l1.3,7.4l0.3,3.3L454,526.1z M467.2,495.5l-1.9,1.3l-2.6,0.7
	l-2.8,0.5l-1.8,0.3l-1.3,0l-0.6-0.5l-0.5-2l-0.5-3.5l-0.5-3.7l-0.1-2.4l0.4-0.9l0.9-0.7l1.3-0.8l4-0.8l1.8-0.4l1.3-0.1l0.7,0.3
	l0.7,1.4l1,2.8l0.8,2.5l0.4,2.8l0,1.9L467.2,495.5z M474.7,439.8l-0.5,2.9l-0.3,1.1l-1.5,0.4l-1.7-0.3l-2-0.9l-1.9-1.5l-1-1.8
	l-0.2-1.6l0.1-2.7l0.4-2.2l0.4-1.1l0.9-0.6l1.6,0.1l2.3,0.5l2.6,1.1l0.8,1l0.6,2.5L474.7,439.8z M496.7,484.3l-2,1.3l-2.9,2.1
	l-1.9,0.9l-1.1,0.7l-0.5,0l-0.6-0.2l-1-2.6l-1.9-3.5l-1-2.3l-0.5-1.6l-0.2-1.6l0.3-1.3l0.9-1.2l1.6-1l0.8-0.6l3-1.5l2-0.8l1.1-0.1
	l0.9,0.8l1.2,2.7l1.8,4.4l0.5,2l0.1,1.9L496.7,484.3z M511.6,473.2l-0.4,0.7l-2,1.7l-2.9,2.7l-3.5,3.2l-0.8-2.7l-1.3-4.4l-1-4.1
	l-0.1-2.6l1.4-2.6l3.3-2.9l4.2-2.5l1.2,3.3l1.4,4.3l0.5,2.9L511.6,473.2z"/>
<g>
	<path d="M9.6,741.3h14.7v15.2c1.5-1.9,3.1-3.8,4.9-5.8c1.8-2,3.8-3.8,6.1-5.4c2.2-1.6,4.6-2.9,7.3-3.9c2.6-1,5.5-1.5,8.7-1.5
		c4.4,0,8.4,0.9,12,2.8c3.6,1.8,6.6,4.3,9.2,7.5c2.5,3.1,4.5,6.8,5.9,11c1.4,4.2,2.1,8.7,2.1,13.5c0,6.1-0.8,11.8-2.5,17
		c-1.7,5.2-4.1,9.7-7.2,13.4c-3.1,3.8-6.9,6.7-11.4,8.8c-4.5,2.1-9.5,3.2-15.1,3.2c-4.1,0-7.6-0.4-10.7-1.3c-3-0.8-6.1-2.2-9.1-4.2
		v35.1H9.6V741.3z M24.3,795.4c0,2.2,0.5,4.3,1.5,6.3c1,1.9,2.3,3.7,4.1,5.1c1.7,1.5,3.8,2.6,6.2,3.5c2.4,0.8,5.1,1.3,8,1.3
		c2.8,0,5.3-0.7,7.8-2.1c2.4-1.4,4.5-3.4,6.4-6c1.8-2.6,3.2-5.7,4.3-9.2c1-3.6,1.6-7.5,1.6-11.9c0-5.5-0.5-10.2-1.5-14.3
		c-1-4.1-2.3-7.4-4-10.2c-1.7-2.7-3.8-4.7-6.1-6.1c-2.4-1.4-4.9-2-7.7-2c-2.1,0-4.2,0.3-6.2,1c-2,0.7-3.8,1.5-5.5,2.6
		c-1.7,1.1-3.3,2.4-4.8,3.8c-1.5,1.5-2.8,3-4,4.6V795.4z"/>
	<path d="M94,741.3h14.6v14c1.4-2.1,3-4.1,4.6-5.9c1.7-1.9,3.4-3.5,5.2-4.9c1.8-1.4,3.6-2.6,5.6-3.4c1.9-0.8,3.9-1.2,5.9-1.2
		c1.6,0,3.1,0.2,4.4,0.7c1.4,0.5,2.6,1.1,3.6,2c1,0.8,1.9,1.8,2.5,2.8c0.6,1.1,0.9,2.2,0.9,3.4c0,2.4-0.7,4.2-2.2,5.4
		c-1.5,1.2-3.6,1.8-6.3,1.8c-1.6,0-2.9-0.2-3.9-0.5c-1-0.4-1.9-0.7-2.7-1.1c-0.8-0.4-1.6-0.8-2.4-1.1c-0.8-0.4-1.9-0.5-3.1-0.5
		c-1,0-1.9,0.3-2.9,0.9c-1,0.6-2,1.4-2.9,2.4c-1,1-2,2.2-3,3.6c-1,1.4-2,2.9-3.1,4.6v51.3H94V741.3z"/>
	<path d="M186.8,817c-5.7,0-10.9-1-15.7-3c-4.8-2-8.9-4.7-12.4-8.1c-3.5-3.4-6.2-7.4-8.2-12c-1.9-4.6-2.9-9.5-2.9-14.7
		c0-5.5,1-10.6,2.9-15.4c1.9-4.8,4.7-9,8.2-12.5c3.5-3.5,7.6-6.4,12.4-8.4c4.8-2.1,10-3.1,15.7-3.1c5.6,0,10.8,0.9,15.6,2.8
		c4.8,1.9,8.9,4.5,12.4,7.7c3.5,3.3,6.2,7.1,8.2,11.6c2,4.4,2.9,9.2,2.9,14.2c0,5.6-1,10.9-2.9,15.8c-2,4.9-4.7,9.2-8.2,12.9
		c-3.5,3.7-7.6,6.6-12.4,8.8C197.6,816,192.4,817,186.8,817z M189.5,811.6c2.9,0,5.6-0.7,8-2.2c2.4-1.5,4.5-3.5,6.2-6
		c1.8-2.5,3.1-5.5,4.1-8.8c1-3.3,1.5-6.9,1.5-10.6c0-5.4-0.5-10.4-1.4-15.1c-0.9-4.7-2.4-8.8-4.5-12.3c-2.1-3.5-4.8-6.2-8.1-8.2
		c-3.3-2-7.4-3-12.2-3c-2.5,0-4.8,0.7-7.1,2.1c-2.3,1.4-4.3,3.4-6.1,5.9c-1.8,2.5-3.2,5.4-4.3,8.7c-1.1,3.3-1.6,6.8-1.6,10.5
		c0,5.4,0.6,10.5,1.7,15.2c1.1,4.7,2.8,8.8,5,12.4c2.2,3.5,4.8,6.3,8,8.4C181.9,810.6,185.5,811.6,189.5,811.6z"/>
	<path d="M255.8,815.4c0,5.2-0.3,9.6-0.9,13.3c-0.6,3.7-1.5,6.8-2.6,9.3c-1.1,2.5-2.6,4.6-4.3,6.1c-1.7,1.5-3.6,2.7-5.8,3.5
		c-2.2,0.8-4.6,1.4-7.3,1.6c-2.7,0.3-5.6,0.4-8.7,0.4c-2.2,0-4.3-0.2-6.1-0.7c-1.8-0.5-3.3-1.1-4.6-1.9c-1.3-0.8-2.2-1.7-2.9-2.8
		c-0.7-1.1-1-2.2-1-3.4c0-2,0.7-3.6,2.1-4.7s3.2-1.6,5.5-1.6c1.1,0,2,0.2,2.8,0.7c0.8,0.5,1.5,1.1,2.2,1.8c0.7,0.7,1.3,1.5,1.9,2.3
		c0.6,0.8,1.2,1.6,1.9,2.3c0.7,0.7,1.4,1.3,2.3,1.8c0.9,0.5,1.9,0.7,3.1,0.7c1.2,0,2.2-0.2,3.2-0.6c0.9-0.4,1.7-1.1,2.4-2
		c0.7-1,1.2-2.3,1.5-3.9c0.4-1.6,0.5-3.6,0.5-6v-87.5l10.4-4.2h4.2V815.4z M248.4,703.4c1.2,0,2.3,0.2,3.3,0.6
		c1,0.4,1.9,0.9,2.7,1.6c0.8,0.7,1.4,1.5,1.8,2.4c0.5,0.9,0.7,1.9,0.7,2.8c0,1-0.2,2-0.7,2.8c-0.5,0.9-1.1,1.6-1.8,2.3
		s-1.7,1.2-2.7,1.6c-1,0.4-2.1,0.6-3.3,0.6c-1.1,0-2.2-0.2-3.2-0.6c-1-0.4-1.9-0.9-2.7-1.6c-0.8-0.7-1.4-1.5-1.8-2.3
		c-0.5-0.9-0.7-1.8-0.7-2.8c0-1,0.2-1.9,0.7-2.8c0.5-0.9,1.1-1.7,1.8-2.4c0.8-0.7,1.7-1.2,2.7-1.6
		C246.2,703.6,247.2,703.4,248.4,703.4z"/>
	<path d="M307.7,817c-5,0-9.7-0.9-14.1-2.8c-4.4-1.9-8.2-4.5-11.5-7.7c-3.3-3.2-5.9-7-7.8-11.4c-1.9-4.3-2.9-9-2.9-13.9
		c0-6,0.9-11.5,2.6-16.5c1.7-5,4.2-9.4,7.4-13.1c3.2-3.7,7-6.5,11.5-8.6c4.5-2.1,9.5-3.1,15-3.1c4.9,0,9.3,0.9,13.3,2.6
		c4,1.7,7.5,4,10.4,6.9c2.9,2.9,5.2,6.2,6.8,9.9c1.6,3.8,2.4,7.7,2.4,11.8h-55.2c0,5,0.6,9.6,1.9,13.8c1.3,4.2,3.1,7.9,5.4,11
		c2.3,3.1,5.1,5.5,8.3,7.3c3.2,1.7,6.7,2.6,10.5,2.6c3.2,0,6.3-0.5,9.2-1.5c2.9-1,5.6-2.4,8-4.1c2.4-1.7,4.4-3.7,6.1-5.8
		c1.7-2.2,2.9-4.4,3.6-6.7l4.2,1.9c-1.1,3.8-2.8,7.3-5.1,10.7c-2.3,3.3-5.1,6.3-8.3,8.8c-3.2,2.5-6.6,4.5-10.3,5.9
		C315.3,816.3,311.6,817,307.7,817z M322.4,765.2c0-2.8-0.5-5.4-1.5-7.9c-1-2.4-2.4-4.5-4.1-6.3c-1.7-1.8-3.8-3.1-6.1-4.1
		c-2.3-1-4.8-1.5-7.5-1.5c-2.2,0-4.4,0.5-6.4,1.5c-2,1-3.8,2.4-5.4,4.1c-1.6,1.8-2.9,3.8-3.9,6.2c-1,2.4-1.7,5-1.9,7.8L322.4,765.2z
		"/>
	<path d="M388,817c-4.9,0-9.4-1-13.6-2.9c-4.2-1.9-7.9-4.5-11.1-7.9c-3.2-3.3-5.7-7.2-7.5-11.6c-1.8-4.4-2.7-9.2-2.7-14.2
		c0-5.6,1-10.9,3-15.8c2-4.9,4.8-9.2,8.2-12.9c3.5-3.7,7.5-6.5,12.2-8.7c4.7-2.1,9.7-3.2,15-3.2c4.1,0,8,0.4,11.5,1.3
		c3.5,0.9,6.5,2.1,9,3.7c2.5,1.6,4.5,3.4,5.9,5.6c1.4,2.1,2.1,4.5,2.1,7c0,1.1-0.3,2.2-0.8,3.2c-0.6,1-1.3,1.9-2.2,2.6
		c-0.9,0.7-2,1.3-3.1,1.7c-1.2,0.4-2.3,0.7-3.5,0.7c-1.3,0-2.5-0.2-3.6-0.7c-1.1-0.5-2-1.1-2.7-1.8c-0.7-0.8-1.3-1.6-1.7-2.6
		c-0.4-1-0.6-2-0.6-3c0-1.7-0.2-3.3-0.5-4.8c-0.4-1.5-1-2.8-1.9-3.8c-0.9-1.1-2.2-1.9-3.8-2.5c-1.6-0.6-3.7-0.9-6.2-0.9
		c-3.4,0-6.4,0.7-9,2c-2.7,1.4-4.9,3.2-6.7,5.5c-1.8,2.3-3.2,5-4.2,8.1c-1,3.1-1.5,6.4-1.5,9.9c0,4.7,0.6,9.2,1.8,13.4
		c1.2,4.2,3,7.9,5.2,11.1c2.3,3.2,5,5.7,8.2,7.5c3.2,1.9,6.7,2.8,10.6,2.8c3.4,0,6.4-0.5,8.9-1.6c2.5-1.1,4.7-2.5,6.6-4.4
		c1.9-1.8,3.5-4,4.8-6.4c1.3-2.5,2.5-5,3.6-7.7l4.4,1.8c-1.2,4.6-2.9,8.8-5,12.5c-2.1,3.7-4.6,6.8-7.5,9.3c-2.9,2.5-6.1,4.5-9.7,5.8
		C396.2,816.4,392.3,817,388,817z"/>
	<path d="M475.2,806c-1.9,3.4-4.5,6.1-7.8,8s-7.3,3-12.1,3c-2.5,0-4.6-0.4-6.4-1.3c-1.8-0.8-3.3-2-4.5-3.5c-1.2-1.5-2.1-3.3-2.6-5.4
		c-0.6-2.1-0.9-4.5-0.9-7v-52.2H428v-3.6c4.1,0,7.5-0.8,10.2-2.3c2.7-1.5,4.8-3.5,6.5-6.1s3.1-5.5,4-8.8c1-3.4,1.8-6.9,2.5-10.7h4.2
		v25.3h16.6v6.2h-16.6v52.2c0,1.1,0.2,2.1,0.6,3.1c0.4,1,1,1.8,1.7,2.5c0.7,0.7,1.6,1.3,2.5,1.7c1,0.4,2,0.6,3.1,0.6
		c1.6,0,3.1-0.4,4.5-1.2c1.4-0.8,2.6-1.8,3.6-3L475.2,806z"/>
	<path d="M507.8,811.9c2,0,3.8-0.3,5.6-0.9c1.7-0.6,3.2-1.4,4.4-2.5c1.2-1,2.2-2.2,2.9-3.5c0.7-1.3,1-2.7,1-4.1
		c0-2.3-0.6-4.3-1.7-5.9c-1.1-1.7-2.6-3.2-4.5-4.5c-1.9-1.4-4-2.6-6.4-3.7c-2.4-1.1-4.8-2.3-7.3-3.4c-2.5-1.1-4.9-2.4-7.3-3.8
		c-2.4-1.4-4.5-2.9-6.4-4.7c-1.9-1.8-3.4-3.8-4.5-6.1c-1.1-2.3-1.7-5.1-1.7-8.2c0-3,0.6-5.7,1.9-8.2c1.3-2.5,3-4.7,5.2-6.5
		c2.2-1.8,4.9-3.3,8-4.3c3.1-1,6.5-1.6,10.2-1.6c2.5,0,4.8,0.2,6.9,0.5c2.1,0.3,4.2,1,6.3,2c2,1,4.1,2.4,6.1,4.2
		c2,1.8,4.2,4.1,6.4,7l-5.4,4.8c-2.8-4.6-5.9-8-9.4-10.3c-3.4-2.2-7.2-3.4-11.1-3.4c-2.1,0-4,0.3-5.7,0.8c-1.7,0.5-3.2,1.2-4.4,2.1
		c-1.2,0.9-2.2,1.9-2.9,3.1s-1,2.5-1,3.8c0,2.2,0.6,4.2,1.8,5.8c1.2,1.6,2.9,3.1,4.9,4.4c2,1.3,4.4,2.6,6.9,3.7
		c2.6,1.1,5.2,2.3,7.9,3.4c2.7,1.2,5.3,2.4,7.9,3.8c2.6,1.4,4.9,2.9,6.9,4.7c2,1.8,3.7,3.8,4.9,6.1c1.2,2.3,1.8,5,1.8,8.1
		c0,3.2-0.6,6.1-1.8,8.8c-1.2,2.7-2.9,5.1-5.3,7.1c-2.3,2-5.3,3.6-8.8,4.7c-3.5,1.1-7.7,1.7-12.4,1.7c-2.1,0-4.4-0.2-6.6-0.5
		s-4.6-1-6.9-2c-2.3-1-4.6-2.4-7-4.2c-2.3-1.8-4.6-4.1-6.8-7l6-5.4c1.8,2.5,3.5,4.6,5.2,6.4c1.7,1.8,3.3,3.2,5,4.4
		c1.7,1.1,3.4,1.9,5.2,2.5C503.7,811.6,505.7,811.9,507.8,811.9z"/>
</g>
</svg>
