<?xml version="1.0" encoding="utf-8"?>
<!-- Generator: Adobe Illustrator 19.1.0, SVG Export Plug-In . SVG Version: 6.00 Build 0)  -->
<svg version="1.1" id="レイヤー_1" xmlns="http://www.w3.org/2000/svg" xmlns:xlink="http://www.w3.org/1999/xlink" x="0px"
	 y="0px" viewBox="0 0 261.8 261.8" style="enable-background:new 0 0 261.8 261.8;" xml:space="preserve">
<style type="text/css">
	.st0{fill:#9BAAFA;}
</style>
<path class="st0" d="M256,227.7l-55.3-55.3c12.2-17.7,19.4-39.2,19.4-62.3C220,49.2,170.8,0,110,0S0,49.2,0,110s49.2,110,110,110
	c23.1,0,44.6-7.2,62.3-19.4l55.3,55.3c3.9,3.9,9,5.9,14.1,5.9s10.2-2,14.1-5.9C263.8,248.2,263.8,235.5,256,227.7z M40,110
	c0-38.7,31.3-70,70-70s70,31.3,70,70s-31.3,70-70,70S40,148.7,40,110z"/>
</svg>
