<svg xmlns="http://www.w3.org/2000/svg" xmlns:xlink="http://www.w3.org/1999/xlink" preserveAspectRatio="xMidYMid" width="654.155" height="55.656" viewBox="0 0 654.155 55.656">
  <defs>
    <style>
      .cls-1 {
        fill: #333;
        fill-rule: evenodd;
      }
    </style>
  </defs>
  <path d="M652.768,18.051 C651.868,18.051 650.848,17.751 649.588,17.511 C647.188,17.091 644.909,16.851 642.329,16.851 C639.149,16.851 636.269,16.851 632.969,17.091 C632.909,21.470 632.849,24.590 632.849,28.010 C633.569,29.870 633.869,31.970 633.869,34.610 C633.869,39.830 631.289,44.569 626.669,48.049 C623.849,50.149 620.070,51.769 616.410,52.849 C615.630,53.089 614.910,53.209 614.550,53.209 C614.010,53.209 613.710,52.909 613.710,52.549 C613.710,52.249 613.890,51.949 614.490,51.709 C618.150,50.329 621.390,48.409 624.089,46.129 C627.029,43.729 628.889,40.850 629.789,37.370 C628.469,38.450 627.089,38.750 625.649,38.750 C622.229,38.750 619.110,36.530 619.110,31.370 C619.110,27.350 622.109,24.050 625.889,24.050 C627.329,24.050 628.709,24.350 629.729,25.010 C629.729,22.430 629.669,20.030 629.609,17.451 C624.809,17.991 619.350,18.951 614.790,20.090 C612.390,20.690 611.430,21.050 610.710,21.530 C610.110,21.950 609.510,22.130 608.970,22.130 C607.830,22.130 606.690,21.530 605.430,20.390 C603.750,18.831 602.970,17.511 602.970,16.491 C602.970,15.771 603.150,15.351 603.450,15.351 C603.570,15.351 603.750,15.411 603.870,15.531 C605.730,17.331 606.630,17.811 608.370,17.811 C609.210,17.811 610.230,17.691 612.210,17.331 C617.970,16.371 624.029,15.471 629.549,14.811 C629.549,12.591 629.549,11.031 629.489,8.931 C629.429,7.731 629.369,6.771 629.129,6.291 C628.769,5.691 628.409,5.451 627.449,5.331 C626.609,5.211 625.949,5.151 625.709,5.151 C625.349,5.151 625.109,5.031 625.109,4.791 C625.109,4.431 625.229,4.251 625.649,3.891 C626.429,3.171 627.809,2.691 628.649,2.691 C630.089,2.691 631.589,3.411 633.029,4.491 C634.229,5.391 634.709,5.931 634.709,6.651 C634.709,7.371 634.409,7.791 633.929,8.331 C633.449,8.811 633.329,9.411 633.269,10.071 C633.209,11.211 633.149,12.651 633.089,14.511 C636.749,14.151 640.049,13.971 643.049,13.791 C644.729,13.731 645.629,13.431 646.109,13.191 C646.589,12.951 647.248,12.771 647.968,12.771 C649.408,12.771 651.448,13.611 652.648,14.331 C653.608,14.931 654.148,15.591 654.148,16.551 C654.148,17.451 653.488,18.051 652.768,18.051 ZM625.709,25.850 C623.609,25.850 621.690,27.530 621.690,30.950 C621.690,33.830 623.549,35.390 625.889,35.390 C628.409,35.390 629.969,33.650 630.029,30.770 C629.849,28.130 628.529,25.850 625.709,25.850 ZM593.428,26.630 C592.648,26.630 592.168,26.330 591.508,25.190 C590.428,23.330 588.028,20.750 585.989,19.550 C585.749,19.430 585.569,19.190 585.569,18.951 C585.569,18.651 585.809,18.351 586.169,18.351 C586.469,18.351 586.948,18.471 587.488,18.591 C589.108,19.010 590.608,19.730 592.288,20.930 C593.728,21.950 595.048,23.330 595.048,24.710 C595.048,25.910 594.328,26.630 593.428,26.630 ZM588.028,13.491 C584.129,13.611 580.649,13.791 577.469,14.811 C573.869,15.951 571.229,17.811 568.829,20.390 C565.769,23.690 564.089,27.890 564.089,32.030 C564.149,35.930 565.709,39.050 568.229,41.030 C571.529,43.609 576.269,44.569 579.209,44.689 C580.769,44.749 581.849,44.869 583.349,45.709 C584.609,46.429 584.969,47.269 584.969,48.289 C584.969,49.309 584.309,50.029 581.789,50.029 C577.469,50.029 571.649,48.349 567.749,45.589 C564.149,43.010 561.330,38.990 561.330,33.710 C561.330,29.870 562.169,26.510 564.029,23.450 C565.709,20.330 568.769,17.271 572.369,14.871 L572.309,14.631 C565.709,16.671 558.930,18.951 554.310,20.570 C553.470,20.870 552.510,21.290 551.730,21.950 C551.310,22.310 550.890,22.550 550.110,22.550 C549.090,22.610 547.650,21.830 546.090,20.030 C545.130,18.891 544.350,17.751 544.290,16.671 C544.290,15.831 544.530,15.171 544.830,15.171 C545.130,15.171 545.370,15.411 545.610,15.651 C547.350,17.391 548.250,17.751 550.110,17.751 C550.830,17.691 552.150,17.511 553.710,17.091 C562.409,14.871 571.409,12.531 580.229,10.251 C581.489,9.951 582.089,9.651 582.569,9.351 C583.169,8.991 583.709,8.811 584.609,8.751 C585.809,8.751 587.248,9.171 588.508,9.771 C589.348,10.131 590.128,10.731 590.128,11.631 C590.188,12.891 589.528,13.431 588.028,13.491 ZM530.488,23.330 C529.408,23.330 528.448,23.150 527.308,23.030 C525.629,22.790 523.169,22.790 521.309,22.790 C518.609,22.790 515.849,22.850 512.189,23.090 C511.709,29.270 510.809,33.590 508.469,38.150 C505.529,44.089 500.010,49.189 493.290,51.949 C492.270,52.369 491.970,52.429 491.610,52.429 C491.190,52.429 490.890,52.129 490.890,51.769 C490.890,51.349 491.130,51.109 491.730,50.749 C497.670,47.089 502.229,42.290 504.689,37.130 C506.669,33.050 507.749,28.490 508.049,23.210 C503.309,23.630 500.070,24.050 496.470,24.590 C494.730,24.890 492.690,25.370 492.090,25.790 C491.490,26.210 490.890,26.390 490.110,26.390 C489.030,26.390 487.890,25.550 486.150,23.810 C485.190,22.850 484.350,21.650 484.350,20.690 C484.350,19.970 484.590,19.490 484.830,19.490 C485.070,19.490 485.310,19.730 485.850,20.150 C487.290,21.290 488.070,22.010 490.170,22.010 C491.190,22.010 492.690,21.950 493.830,21.830 C498.450,21.350 502.289,20.990 508.109,20.450 C508.169,17.931 508.229,15.471 508.229,14.151 C508.229,12.711 508.289,11.271 508.169,9.411 C508.109,8.391 507.809,7.611 507.329,7.311 C506.549,6.831 505.229,6.591 504.149,6.471 C503.789,6.411 503.549,6.291 503.549,5.991 C503.549,5.811 503.969,5.331 504.389,5.091 C505.229,4.551 505.709,4.371 506.729,4.371 C507.869,4.371 509.789,4.851 511.589,5.691 C513.209,6.411 513.989,7.251 513.989,8.091 C513.989,8.811 513.749,9.111 513.209,9.651 C512.609,10.251 512.669,10.611 512.609,11.751 C512.549,13.971 512.429,17.031 512.369,20.150 C515.909,19.910 518.969,19.610 522.329,19.370 C523.229,19.310 523.949,19.070 524.309,18.831 C524.609,18.651 525.269,18.411 525.869,18.411 C527.128,18.411 529.108,19.010 530.608,19.730 C531.508,20.150 532.228,20.870 532.228,21.710 C532.228,22.730 531.568,23.330 530.488,23.330 ZM469.888,22.970 C468.868,23.030 467.788,22.850 466.049,22.730 C463.769,22.550 461.609,22.550 459.329,22.610 C456.749,22.610 453.329,22.730 450.569,22.910 C452.069,23.750 453.329,24.830 453.329,25.730 C453.329,26.030 453.209,26.330 452.969,26.690 C452.669,27.110 452.429,27.530 452.129,28.490 C450.989,32.750 448.949,37.070 445.889,41.150 C442.589,45.469 438.990,49.189 434.070,51.949 C433.650,52.189 433.410,52.249 433.170,52.249 C432.690,52.249 432.330,51.949 432.330,51.529 C432.330,51.169 432.510,50.809 433.230,50.209 C436.530,47.449 440.250,43.190 442.829,38.990 C444.989,35.510 446.729,31.610 447.689,27.590 C447.989,26.390 448.109,25.730 448.109,25.130 C448.109,24.410 447.869,23.630 447.329,23.150 C443.309,23.450 439.950,23.870 436.650,24.470 C434.310,24.890 433.290,25.190 432.330,25.730 C431.910,25.970 431.490,26.090 430.890,26.090 C429.870,26.090 428.490,25.190 427.110,23.750 C425.970,22.670 425.310,21.530 425.310,20.570 C425.310,19.850 425.550,19.370 425.850,19.370 C426.030,19.370 426.330,19.610 426.870,20.030 C428.250,21.170 429.510,21.890 430.890,21.890 C431.970,21.890 433.050,21.770 434.370,21.650 C438.990,21.110 442.889,20.690 448.409,20.270 C452.909,19.970 456.989,19.670 461.189,19.250 C462.269,19.130 462.989,18.891 463.349,18.711 C463.889,18.471 464.609,18.231 465.269,18.231 C466.529,18.231 468.568,18.771 470.008,19.670 C470.908,20.210 471.268,20.870 471.268,21.590 C471.268,22.430 470.668,22.970 469.888,22.970 ZM460.589,10.671 C459.449,10.731 458.249,10.731 456.689,10.911 C452.489,11.271 447.389,11.691 443.249,12.051 C442.049,12.171 439.830,12.351 439.230,12.351 C438.090,12.351 437.130,12.111 435.450,10.611 C434.190,9.411 433.770,8.391 433.770,7.491 C433.770,7.011 433.890,6.711 434.130,6.711 C434.370,6.711 434.610,6.891 434.970,7.251 C436.590,8.631 437.670,9.051 439.830,9.051 C441.750,9.051 443.369,8.931 445.889,8.691 C448.649,8.451 450.449,8.151 452.789,7.731 C454.349,7.431 455.189,7.251 455.789,7.011 C456.569,6.711 457.409,6.351 458.009,6.351 C458.969,6.351 460.169,6.651 461.369,7.311 C462.269,7.851 462.449,8.391 462.449,9.231 C462.449,9.951 461.789,10.611 460.589,10.671 ZM396.869,31.490 C392.009,36.230 386.849,40.310 381.210,44.509 C380.550,44.989 379.950,45.529 379.710,45.889 C379.230,46.669 378.570,47.089 377.790,47.089 C376.410,47.089 375.270,46.069 373.950,44.749 C372.090,42.770 371.370,41.330 371.370,39.950 C371.370,39.050 371.610,38.450 372.030,38.450 C372.270,38.450 372.450,38.630 372.870,39.110 C374.070,40.550 374.790,41.210 375.750,41.210 C376.350,41.210 377.310,40.910 378.570,40.130 C383.849,37.070 389.369,33.050 394.589,28.550 C399.989,23.810 405.089,18.891 408.868,14.091 C409.168,13.731 409.468,13.551 409.708,13.551 C410.068,13.551 410.608,13.971 410.608,14.331 C410.608,14.631 410.488,14.991 410.188,15.411 C406.648,21.110 402.029,26.510 396.869,31.490 ZM380.130,23.150 C378.870,23.150 378.330,22.670 377.550,21.110 C376.950,19.970 376.230,18.651 375.030,17.091 C373.770,15.531 372.210,14.271 370.710,13.311 C370.410,13.131 370.230,12.831 370.230,12.591 C370.230,12.351 370.530,12.111 370.890,12.111 C371.130,12.111 371.490,12.111 372.150,12.231 C374.670,12.771 377.070,13.851 378.810,14.991 C381.450,16.731 382.409,18.291 382.409,20.510 C382.409,22.070 381.450,23.150 380.130,23.150 ZM345.629,15.231 C341.549,17.991 337.469,20.630 331.649,23.630 C330.989,28.550 329.849,32.990 327.809,37.070 C325.169,42.590 320.850,47.989 314.610,51.409 C313.830,51.829 313.290,52.069 312.810,52.069 C312.450,52.069 312.150,51.709 312.150,51.409 C312.150,51.049 312.390,50.749 312.990,50.269 C318.450,46.069 321.990,41.210 324.449,35.330 C326.309,31.010 327.449,25.250 327.449,21.170 C327.449,20.390 327.449,19.310 326.969,18.831 C326.609,18.411 325.349,18.111 324.149,18.051 C323.789,18.051 323.549,18.051 323.549,17.691 C323.549,17.391 323.969,16.911 324.509,16.551 C324.989,16.251 325.709,16.071 326.609,16.071 C328.349,16.071 330.269,16.371 331.289,16.851 C332.189,17.211 332.549,17.691 332.549,18.471 C332.549,18.771 332.369,19.130 332.249,19.490 C332.129,19.850 332.009,20.570 331.949,21.290 C335.969,18.591 339.449,15.651 343.229,11.811 C343.409,11.631 343.529,11.511 343.529,11.151 C343.529,10.971 343.289,10.911 342.809,10.911 C341.069,11.031 335.609,11.391 330.869,11.931 C326.729,12.351 322.409,12.951 318.630,13.611 C316.350,14.031 314.490,14.331 313.770,14.811 C312.930,15.351 312.570,15.471 311.970,15.471 C310.830,15.471 309.270,14.331 307.890,12.711 C306.810,11.451 306.330,10.431 306.330,9.471 C306.330,8.751 306.510,8.091 306.750,8.091 C307.110,8.091 307.410,8.391 307.710,8.751 C309.330,10.431 310.230,10.791 311.610,10.791 C313.170,10.791 315.030,10.731 317.670,10.431 C325.289,9.711 332.969,9.051 340.589,8.391 C342.329,8.211 342.869,8.151 343.349,7.851 C343.769,7.551 344.309,7.191 344.909,7.191 C345.809,7.191 346.828,7.791 348.388,9.171 C349.768,10.371 350.728,11.391 350.728,12.531 C350.728,13.371 350.128,13.731 348.988,13.911 C347.788,14.091 346.828,14.391 345.629,15.231 ZM272.129,25.370 C280.949,25.370 285.809,30.890 285.809,37.370 C285.809,46.429 277.649,51.529 268.829,51.529 C262.289,51.529 257.670,48.829 257.670,44.749 C257.670,41.510 260.370,39.770 263.669,39.770 C269.249,39.770 272.849,44.689 273.749,47.449 C278.549,45.829 281.309,41.750 281.309,37.070 C281.309,30.410 276.929,27.530 271.829,27.530 C266.249,27.530 261.570,30.290 258.270,33.650 C256.170,35.810 254.850,37.190 253.590,38.930 C253.290,39.350 252.690,39.710 252.090,39.710 C250.950,39.710 249.930,38.750 249.930,37.370 C249.930,36.770 250.110,36.110 250.950,35.210 C255.570,30.230 260.550,25.070 264.869,19.790 C267.449,16.611 269.909,13.611 272.909,9.651 C273.329,9.111 273.149,8.991 272.909,8.991 C272.669,8.991 272.129,9.171 271.769,9.291 C269.069,10.191 266.009,11.331 263.609,12.291 C262.529,12.711 262.109,12.951 261.570,13.551 C261.210,13.911 260.670,14.211 259.950,14.211 C259.170,14.211 257.910,13.551 256.950,12.471 C255.870,11.331 254.790,9.771 254.790,8.091 C254.790,7.491 255.150,6.831 255.510,6.831 C255.750,6.831 255.990,7.071 256.290,7.491 C257.610,9.231 258.450,9.831 259.470,9.831 C260.250,9.831 261.270,9.711 262.589,9.411 C265.289,8.751 267.809,8.031 270.509,7.131 C271.349,6.891 271.829,6.531 272.309,6.051 C272.729,5.631 273.209,5.451 273.689,5.451 C274.649,5.451 276.149,6.351 277.469,7.311 C278.669,8.151 279.269,8.931 279.269,9.891 C279.269,10.491 278.789,10.911 277.709,11.151 C277.109,11.271 276.569,11.571 275.249,12.891 C273.269,14.871 270.809,17.451 267.269,21.590 C265.049,24.170 261.810,27.290 259.410,29.990 L259.530,30.110 C263.729,26.870 268.049,25.370 272.129,25.370 ZM262.949,41.630 C260.790,41.630 259.650,42.950 259.650,44.389 C259.650,46.849 262.829,48.529 267.629,48.529 C268.649,48.529 269.489,48.469 270.029,48.349 C269.129,44.929 265.889,41.630 262.949,41.630 ZM231.868,25.610 C231.928,40.370 232.108,47.569 232.108,49.549 C232.108,51.889 231.448,52.909 230.068,53.749 C229.108,54.409 227.848,54.769 226.828,54.769 C225.809,54.769 225.509,54.589 225.389,53.569 C225.029,51.769 224.009,51.109 219.149,49.849 C218.729,49.729 218.789,48.769 219.209,48.829 C222.509,49.249 224.849,49.429 226.708,49.429 C227.488,49.429 227.728,49.129 227.728,48.349 L227.728,11.331 C227.728,4.491 227.668,3.471 227.368,1.191 C233.248,1.911 233.668,2.091 233.668,2.871 C233.668,3.411 233.368,3.831 231.868,4.491 L231.868,25.610 ZM220.709,17.031 C220.709,30.530 220.949,37.130 220.949,39.110 C220.949,40.490 220.109,41.090 218.309,41.090 C216.929,41.090 216.449,40.550 216.449,39.410 C216.449,38.030 216.749,33.410 216.749,21.470 C216.749,11.391 216.749,9.171 216.449,5.571 C221.729,6.111 222.629,6.411 222.629,7.311 C222.629,7.731 222.269,8.151 220.709,8.811 L220.709,17.031 ZM211.169,14.391 C210.449,14.391 209.849,13.911 208.649,12.411 C205.709,9.111 202.829,6.711 198.870,4.671 C194.190,11.211 188.550,15.591 180.390,18.951 C180.030,19.130 179.610,18.291 179.970,18.051 C185.430,14.631 189.930,10.251 193.110,5.871 C194.490,3.951 195.570,1.971 196.290,-0.009 C200.430,1.491 202.049,2.151 202.049,2.751 C202.049,3.291 201.390,3.591 199.590,3.711 L199.470,3.891 C208.349,6.351 212.789,9.351 212.789,12.291 C212.789,13.491 212.069,14.391 211.169,14.391 ZM195.150,14.751 C194.190,14.751 193.470,14.871 192.150,15.111 L191.550,12.831 C192.990,13.191 193.830,13.251 195.150,13.251 L200.610,13.251 C202.349,11.031 202.829,10.731 203.189,10.731 C203.549,10.731 204.029,11.031 206.009,12.651 C206.849,13.371 207.209,13.791 207.209,14.151 C207.209,14.571 207.029,14.751 206.369,14.751 L195.150,14.751 ZM186.750,23.690 C186.750,21.230 186.750,20.210 186.510,16.851 C188.490,17.691 189.450,18.111 191.310,19.190 L205.829,19.190 C207.389,17.391 207.689,17.211 208.109,17.211 C208.469,17.211 208.829,17.391 210.629,18.891 C211.469,19.610 211.649,20.030 211.649,20.390 C211.649,20.750 211.409,21.050 210.269,21.890 L210.269,25.430 C210.269,30.050 210.389,31.970 210.389,33.710 C210.389,35.030 209.549,35.510 208.049,35.510 C206.789,35.510 206.249,35.090 206.249,34.070 L206.249,33.590 L190.230,33.590 C190.050,34.850 189.870,36.110 189.510,37.370 C191.190,38.090 191.970,38.510 193.650,39.410 L206.489,39.410 C208.109,37.670 208.409,37.430 208.829,37.430 C209.189,37.430 209.549,37.610 211.289,39.050 C212.189,39.770 212.369,40.130 212.369,40.490 C212.369,40.910 212.189,41.150 210.989,41.990 L210.989,44.449 C210.929,49.429 211.109,51.769 211.109,52.369 C211.109,53.569 210.329,54.109 208.709,54.109 C207.449,54.109 206.969,53.689 206.969,52.669 L206.969,51.409 L193.230,51.409 L193.230,53.269 C193.230,54.349 192.450,55.009 190.890,55.009 C189.690,55.009 189.150,54.469 189.150,53.629 C189.150,52.609 189.270,50.929 189.270,44.749 C189.270,41.990 189.270,40.250 189.210,38.630 C187.470,44.329 184.770,47.989 180.270,52.249 C180.030,52.489 179.370,52.069 179.550,51.769 C182.430,47.089 184.410,43.250 185.550,38.150 C186.390,34.430 186.750,30.110 186.750,23.690 ZM206.249,20.690 L190.890,20.690 L190.890,22.670 C190.890,23.690 190.890,24.650 190.830,25.610 L206.249,25.610 L206.249,20.690 ZM206.249,32.090 L206.249,27.110 L190.830,27.110 C190.710,28.790 190.590,30.410 190.410,32.090 L206.249,32.090 ZM193.230,49.909 L206.969,49.909 L206.969,40.910 L193.230,40.910 L193.230,49.909 ZM166.049,25.430 C163.109,26.690 160.109,28.070 155.969,30.230 C154.229,31.130 152.249,32.330 150.569,33.230 C150.569,36.050 150.569,38.510 150.569,41.630 C150.569,43.310 149.909,44.149 148.709,44.149 C147.509,44.149 146.669,43.490 146.669,41.990 C146.669,40.550 146.789,38.030 146.909,35.090 C141.630,38.090 138.510,40.430 138.510,44.149 C138.510,46.609 140.670,48.529 146.249,48.529 C149.789,48.529 152.249,48.409 154.649,48.109 C156.149,47.869 157.289,47.629 158.189,47.389 C158.969,47.209 159.629,47.029 160.229,47.029 C162.329,47.029 164.369,48.229 164.369,49.669 C164.369,50.629 163.709,51.229 161.369,51.589 C159.509,51.949 154.889,52.189 150.029,52.189 C141.870,52.189 136.350,50.209 136.350,44.509 C136.350,39.290 140.490,35.870 146.909,32.030 L146.909,29.150 C146.909,25.730 146.069,24.290 143.909,24.290 C141.450,24.290 138.930,26.090 136.530,28.490 C134.610,30.470 133.230,32.450 131.790,34.490 C131.310,35.150 130.530,35.930 129.750,35.930 C128.610,35.930 127.770,35.210 127.770,33.530 C127.770,32.630 128.430,31.790 129.630,30.590 C131.370,28.790 133.650,26.210 135.450,23.690 C137.070,21.470 138.510,19.010 139.890,16.611 C138.270,16.851 136.590,16.971 134.730,16.971 C131.730,16.971 129.330,15.951 127.770,13.131 C127.590,12.831 127.530,12.591 127.530,12.351 C127.530,11.991 127.770,11.811 128.010,11.811 C128.190,11.811 128.490,11.991 128.730,12.291 C130.170,13.851 132.330,14.271 134.670,14.271 C136.410,14.271 138.810,13.911 141.450,13.311 C142.229,11.751 143.009,9.651 143.429,8.211 C143.609,7.551 143.729,7.011 143.729,6.651 C143.729,5.871 143.309,5.511 142.529,5.271 C141.750,5.031 140.970,4.911 140.070,4.791 C139.770,4.731 139.590,4.611 139.590,4.431 C139.590,4.251 139.830,3.951 140.070,3.771 C140.910,3.171 141.570,2.991 142.409,2.991 C143.729,2.991 145.529,3.591 146.909,4.371 C148.349,5.211 148.889,5.991 148.889,6.711 C148.889,7.491 148.529,7.851 148.229,8.091 C147.749,8.451 147.149,8.991 146.729,9.711 C146.369,10.311 145.709,11.511 145.229,12.471 C147.449,11.811 149.189,11.091 150.449,10.371 C151.409,9.831 152.369,9.351 153.509,9.351 C154.829,9.351 155.789,10.071 155.789,11.151 C155.789,12.231 154.949,12.591 153.809,13.011 C150.569,14.151 147.569,14.991 143.309,16.011 C141.450,19.130 139.590,22.310 137.550,25.190 C139.950,23.450 142.649,22.310 144.749,22.310 C147.929,22.310 149.969,24.230 150.269,27.410 C150.389,28.130 150.389,29.210 150.449,30.230 C155.249,27.470 158.549,25.490 162.449,22.730 C163.049,22.310 163.349,21.830 163.349,21.470 C163.349,21.170 163.109,20.930 162.629,20.630 C162.149,20.330 161.429,20.150 160.829,19.970 C160.469,19.850 160.229,19.730 160.229,19.550 C160.229,19.310 160.649,18.951 161.129,18.771 C161.549,18.591 162.029,18.531 162.629,18.531 C163.769,18.531 165.629,19.130 167.188,20.030 C168.988,20.990 169.948,22.010 169.948,23.210 C169.948,24.230 169.168,24.710 168.388,24.770 C167.908,24.830 167.188,24.950 166.049,25.430 ZM78.690,22.910 C78.690,24.590 77.610,25.910 76.230,25.910 C74.910,25.910 74.190,25.190 73.950,23.510 C73.470,20.030 72.270,17.151 70.590,14.991 C70.410,14.751 70.830,14.331 71.070,14.451 C76.290,17.151 78.690,20.090 78.690,22.910 ZM112.708,51.589 C112.408,52.189 112.168,52.429 111.748,52.429 C111.388,52.429 110.668,52.189 109.468,51.589 C105.749,49.669 102.029,47.089 98.909,44.269 C95.369,40.910 92.189,36.770 89.489,31.190 C89.549,37.610 89.789,51.289 89.789,53.629 C89.789,55.009 88.829,55.669 87.029,55.669 C85.529,55.669 84.929,55.129 84.929,53.869 C84.929,51.889 85.229,40.910 85.469,33.710 C79.650,42.290 70.170,49.129 60.630,52.609 C60.210,52.729 59.850,52.009 60.210,51.769 C69.750,46.129 77.130,39.650 82.829,29.870 L66.510,29.870 C64.890,29.870 63.690,29.930 61.710,30.230 L61.110,27.950 C63.270,28.250 64.650,28.370 66.450,28.370 L85.229,28.370 L85.229,11.751 L69.210,11.751 C67.710,11.751 66.630,11.871 64.950,12.111 L64.350,9.771 C66.270,10.131 67.470,10.251 69.150,10.251 L85.229,10.251 L85.229,7.311 C85.229,3.351 85.169,2.091 84.929,-0.009 C90.629,0.651 91.589,0.891 91.589,1.731 C91.589,2.271 91.229,2.631 89.609,3.411 L89.609,10.251 L103.109,10.251 C105.869,7.131 106.289,6.831 106.648,6.831 C107.068,6.831 107.488,7.131 110.308,9.351 C111.628,10.491 111.928,10.851 111.928,11.211 C111.928,11.571 111.748,11.751 111.088,11.751 L89.609,11.751 L89.609,28.370 L92.909,28.370 C94.889,25.550 96.989,21.650 98.249,18.471 C99.089,16.611 99.689,14.871 99.929,13.611 C104.549,15.711 105.809,16.491 105.809,17.151 C105.809,17.991 105.269,18.231 103.289,18.231 C100.709,22.130 97.469,25.970 94.649,28.370 L106.349,28.370 C108.928,25.250 109.348,25.010 109.708,25.010 C110.128,25.010 110.608,25.250 113.548,27.410 C114.868,28.550 115.108,28.910 115.108,29.270 C115.108,29.690 114.928,29.870 114.328,29.870 L90.029,29.870 C92.969,34.670 96.629,38.390 101.489,41.570 C105.869,44.449 110.848,46.489 116.188,47.749 C116.428,47.809 116.368,48.289 116.128,48.349 C114.328,48.709 113.668,49.369 112.708,51.589 ZM52.828,49.849 C52.588,50.509 52.348,50.749 51.868,50.749 C51.568,50.749 50.968,50.509 49.768,49.909 C45.449,47.869 41.729,44.929 38.489,41.750 C35.189,38.330 32.069,33.890 29.369,28.130 C29.489,35.870 29.669,51.469 29.669,53.389 C29.669,54.769 28.769,55.429 26.849,55.429 C25.409,55.429 24.809,54.889 24.809,53.629 C24.809,51.589 25.109,40.010 25.289,31.070 C18.990,40.310 10.410,47.029 0.570,50.929 C0.150,51.109 -0.210,50.329 0.150,50.089 C9.690,44.389 17.910,36.050 22.949,26.750 L7.230,26.750 C5.550,26.750 4.350,26.870 2.430,27.110 L1.830,24.830 C3.990,25.190 5.310,25.250 7.170,25.250 L25.109,25.250 L25.109,13.611 L11.610,13.611 C9.990,13.611 8.730,13.671 6.870,13.971 L6.270,11.691 C8.370,11.991 9.750,12.111 11.550,12.111 L25.109,12.111 L25.109,8.451 C25.109,3.891 25.049,2.571 24.749,0.351 C30.749,1.011 31.469,1.311 31.469,2.091 C31.469,2.631 31.109,3.051 29.489,3.831 L29.489,12.111 L41.609,12.111 C44.009,9.171 44.489,8.931 44.849,8.931 C45.269,8.931 45.749,9.171 48.448,11.211 C49.768,12.231 50.068,12.591 50.068,13.011 C50.068,13.371 49.828,13.611 49.288,13.611 L29.489,13.611 L29.489,25.250 L45.749,25.250 C48.328,22.130 48.748,21.830 49.108,21.830 C49.528,21.830 50.008,22.130 52.888,24.350 C54.268,25.430 54.568,25.850 54.568,26.210 C54.568,26.570 54.388,26.750 53.788,26.750 L29.969,26.750 C32.849,31.850 36.449,35.750 40.949,39.170 C45.449,42.530 50.908,44.809 56.308,46.069 C56.548,46.129 56.488,46.609 56.248,46.669 C54.448,47.089 53.848,47.629 52.828,49.849 ZM580.649,23.030 C580.649,22.730 580.889,22.430 581.309,22.430 C581.669,22.430 582.089,22.550 582.269,22.610 C583.889,23.090 585.689,23.990 587.488,25.610 C588.928,26.870 589.768,27.950 589.768,29.210 C589.768,30.170 589.168,31.010 588.088,31.010 C587.308,31.010 586.648,30.470 586.109,29.390 C585.209,27.590 582.809,24.950 581.069,23.630 C580.829,23.450 580.649,23.210 580.649,23.030 Z" class="cls-1"/>
</svg>
