<svg xmlns="http://www.w3.org/2000/svg" xmlns:xlink="http://www.w3.org/1999/xlink" preserveAspectRatio="xMidYMid" width="87.969" height="15.375" viewBox="0 0 87.969 15.375">
  <defs>
    <style>
      .cls-1 {
        fill: #333;
        fill-rule: evenodd;
      }
    </style>
  </defs>
  <path d="M85.465,15.035 L83.215,10.137 L76.922,10.137 L74.602,15.035 L73.360,15.035 L80.438,0.012 L81.059,0.012 L87.973,15.035 L85.465,15.035 ZM80.098,3.375 L77.356,9.188 L82.758,9.188 L80.098,3.375 ZM60.469,3.434 L60.387,3.434 L60.387,15.035 L59.274,15.035 L59.274,0.340 L60.657,0.340 L70.289,11.086 L70.383,11.086 L70.383,0.340 L71.473,0.340 L71.473,15.387 L70.899,15.387 L60.469,3.434 ZM46.324,0.340 L56.543,0.340 L56.543,1.289 L48.797,1.289 L48.797,6.551 L53.977,6.551 L53.977,7.500 L48.797,7.500 L48.797,14.086 L56.543,14.086 L56.543,15.035 L46.324,15.035 L46.324,0.340 ZM38.742,15.035 L36.270,15.035 L36.270,1.289 L30.949,1.289 L30.949,0.340 L44.063,0.340 L44.063,1.289 L38.742,1.289 L38.742,15.035 ZM17.684,3.434 L17.602,3.434 L17.602,15.035 L16.489,15.035 L16.489,0.340 L17.871,0.340 L27.504,11.086 L27.598,11.086 L27.598,0.340 L28.688,0.340 L28.688,15.387 L28.114,15.387 L17.684,3.434 ZM9.844,10.137 L3.551,10.137 L1.231,15.035 L-0.011,15.035 L7.067,0.012 L7.688,0.012 L14.602,15.035 L12.094,15.035 L9.844,10.137 ZM6.727,3.375 L3.985,9.188 L9.387,9.188 L6.727,3.375 Z" class="cls-1"/>
</svg>
