<?xml version="1.0" encoding="utf-8"?>
<!-- Generator: Adobe Illustrator 19.1.0, SVG Export Plug-In . SVG Version: 6.00 Build 0)  -->
<svg version="1.1" id="レイヤー_2" xmlns="http://www.w3.org/2000/svg" xmlns:xlink="http://www.w3.org/1999/xlink" x="0px"
	 y="0px" viewBox="0 0 1220 170" enable-background="new 0 0 1220 170" xml:space="preserve">
<g>
	<polygon fill="#070707" points="85.4,6.6 4.6,164.4 32.4,164.4 51.6,125.4 115.4,125.4 103.4,102.4 63.1,102.4 98.4,32.4 
		164.6,164.4 192.4,164.4 111.7,6.6 	"/>
	<polygon fill="#070707" points="1108.5,6.6 1027.7,164.4 1055.5,164.4 1074.7,125.4 1138.5,125.4 1126.5,102.4 1086.2,102.4 
		1121.5,32.4 1187.7,164.4 1215.5,164.4 1134.8,6.6 	"/>
	<polygon fill="#070707" points="228.4,6.6 228.4,164.4 252.4,164.4 252.4,29.4 268.4,29.4 337.3,164.4 390.6,164.4 390.6,6.6 
		366.3,6.6 366.3,142.1 352.6,142.1 282.9,6.6 	"/>
	<polygon fill="#070707" points="829.5,6.6 829.5,164.4 853.5,164.4 853.5,29.4 869.5,29.4 938.4,164.4 991.7,164.4 991.7,6.6 
		967.4,6.6 967.4,142.1 953.7,142.1 884,6.6 	"/>
	<polygon fill="#070707" points="432.1,6.6 432.1,29.7 503.3,29.7 503.3,164.4 527.7,164.4 527.7,29.7 599.6,29.7 599.6,6.6 	"/>
	<polygon fill="#070707" points="640.3,6.6 640.3,164.4 780.9,164.4 780.9,141.6 664.7,141.6 664.7,94 758.6,94 758.6,71.1 
		664.7,71.1 664.7,29.4 778.6,29.4 778.6,6.6 	"/>
</g>
</svg>
